<svg aria-hidden="true" style="position: absolute; width: 0; height: 0; overflow: hidden;" version="1.1" xmlns="http://www.w3.org/2000/svg" xmlns:xlink="http://www.w3.org/1999/xlink">
<defs>
<symbol id="icon-chek-mark" viewBox="0 0 32 32">
<path fill="#4bd37b" style="fill: var(--color1, #4bd37b)" d="M31 16c0 8.284-6.716 15-15 15s-15-6.716-15-15c0-8.284 6.716-15 15-15s15 6.716 15 15z"></path>
<path fill="#fff" style="fill: var(--color2, #fff)" d="M23 7l-10.5 10.8-3.5-3.6-3.5 3.6 7 7.2 14-14.4z"></path>
</symbol>
<symbol id="icon-cross" viewBox="0 0 32 32">
<path d="M5.632 2.709l10.368 10.368 10.325-10.325c0.366-0.389 0.874-0.612 1.408-0.619 1.178 0 2.133 0.955 2.133 2.133 0.010 0.529-0.198 1.038-0.576 1.408l-10.432 10.325 10.432 10.432c0.352 0.344 0.558 0.81 0.576 1.301 0 1.178-0.955 2.133-2.133 2.133-0.55 0.023-1.084-0.186-1.472-0.576l-10.261-10.368-10.347 10.347c-0.364 0.376-0.863 0.591-1.387 0.597-1.178 0-2.133-0.955-2.133-2.133-0.010-0.529 0.198-1.038 0.576-1.408l10.432-10.325-10.432-10.432c-0.352-0.344-0.558-0.81-0.576-1.301 0-1.178 0.955-2.133 2.133-2.133 0.513 0.006 1.003 0.213 1.365 0.576z"></path>
</symbol>
<symbol id="icon-instagram" viewBox="0 0 32 32">
<path d="M10.24 1.92c-4.589 0-8.32 3.731-8.32 8.32v11.52c0 4.589 3.731 8.32 8.32 8.32h11.52c4.589 0 8.32-3.731 8.32-8.32v-11.52c0-4.589-3.731-8.32-8.32-8.32h-11.52zM23.68 7.040c0.704 0 1.28 0.576 1.28 1.28s-0.576 1.28-1.28 1.28c-0.704 0-1.28-0.576-1.28-1.28s0.576-1.28 1.28-1.28zM16 8.96c3.885 0 7.040 3.155 7.040 7.040s-3.155 7.040-7.040 7.040c-3.885 0-7.040-3.155-7.040-7.040s3.155-7.040 7.040-7.040zM16 10.24c-3.174 0-5.76 2.586-5.76 5.76s2.586 5.76 5.76 5.76c3.174 0 5.76-2.586 5.76-5.76s-2.586-5.76-5.76-5.76z"></path>
</symbol>
<symbol id="icon-linkedin" viewBox="0 0 32 32">
<path d="M27.106 2.667c1.23 0 2.228 0.997 2.228 2.228v22.211c0 1.23-0.997 2.228-2.228 2.228h-22.211c-1.23 0-2.228-0.997-2.228-2.228v-22.211c0-1.23 0.997-2.228 2.228-2.228h22.211zM20.692 12.667c-1.893 0-3.188 0.836-3.764 1.808l-0.094 0.173v-1.814h-3.611v12.778h3.889v-6.189c0-2.074 0.764-3.394 2.6-3.394 1.266 0 1.798 1.12 1.841 3.116l0.003 0.278v6.189h3.889v-7.057c0-3.811-0.912-5.887-4.753-5.887zM10.444 12.667h-3.889v12.778h3.889v-12.778zM8.5 6c-1.381 0-2.5 1.119-2.5 2.5s1.119 2.5 2.5 2.5c1.381 0 2.5-1.119 2.5-2.5s-1.119-2.5-2.5-2.5z"></path>
</symbol>
<symbol id="icon-x" viewBox="0 0 32 32">
<path d="M7.040 2.56c-2.474 0-4.48 2.006-4.48 4.48v17.92c0 2.474 2.006 4.48 4.48 4.48h17.92c2.474 0 4.48-2.006 4.48-4.48v-17.92c0-2.474-2.006-4.48-4.48-4.48h-17.92zM8.375 8.32h5.080l3.607 5.126 4.378-5.126h1.6l-5.255 6.152 6.48 9.207h-5.079l-4.186-5.947-5.080 5.947h-1.6l5.957-6.974-5.902-8.386zM10.825 9.6l9.029 12.8h1.961l-9.029-12.8h-1.961z"></path>
</symbol>
<symbol id="icon-youtube" viewBox="0 0 32 32">
<path d="M28.735 9.28c-0.255-1.407-1.47-2.433-2.88-2.752-2.11-0.447-6.015-0.768-10.24-0.768-4.223 0-8.19 0.32-10.303 0.768-1.407 0.32-2.625 1.28-2.88 2.752-0.257 1.6-0.512 3.84-0.512 6.72s0.255 5.12 0.575 6.72c0.257 1.407 1.473 2.433 2.88 2.753 2.24 0.448 6.080 0.767 10.305 0.767s8.065-0.32 10.305-0.767c1.407-0.32 2.622-1.28 2.88-2.753 0.255-1.6 0.575-3.905 0.64-6.72-0.13-2.88-0.45-5.12-0.77-6.72zM12.16 20.48v-8.96l7.808 4.48z"></path>
</symbol>
<symbol id="icon-chevron-down" viewBox="0 0 32 32">
<path d="M16 21.913c-0.383 0-0.73-0.139-1.009-0.417l-8.696-9.043c-0.522-0.557-0.522-1.426 0.035-1.983 0.557-0.522 1.426-0.522 1.983 0.035l7.687 8 7.687-8c0.522-0.557 1.426-0.557 1.983-0.035s0.557 1.426 0.035 1.983l-8.696 9.043c-0.278 0.278-0.626 0.417-1.009 0.417z"></path>
</symbol>
<symbol id="icon-dollar" viewBox="0 0 32 32">
<path d="M16 0c-8.837 0-16 7.163-16 16s7.163 16 16 16 16-7.164 16-16-7.163-16-16-16zM16.969 23.127v1.852c0 0.289-0.225 0.499-0.515 0.499h-1.235c-0.29 0-0.523-0.21-0.523-0.499v-1.689c-1.136-0.052-2.282-0.294-3.15-0.624-0.47-0.178-0.732-0.682-0.607-1.169l0.201-0.784c0.070-0.275 0.254-0.505 0.505-0.634 0.251-0.131 0.547-0.144 0.81-0.043 0.826 0.32 1.803 0.552 2.845 0.552 1.327 0 2.236-0.512 2.236-1.444 0-0.885-0.745-1.444-2.469-2.027-2.492-0.838-4.199-2.003-4.199-4.262 0-2.049 1.45-3.656 3.93-4.146v-1.689c0-0.289 0.247-0.548 0.537-0.548h1.235c0.29 0 0.502 0.259 0.502 0.548v1.526c1.084 0.047 1.867 0.207 2.521 0.421 0.495 0.162 0.788 0.68 0.657 1.186l-0.177 0.702c-0.069 0.267-0.246 0.494-0.488 0.625s-0.528 0.155-0.79 0.065c-0.595-0.204-1.37-0.389-2.353-0.389-1.514 0-2.003 0.652-2.003 1.305 0 0.769 0.815 1.258 2.795 2.003 2.771 0.978 3.885 2.259 3.885 4.355-0.001 2.073-1.465 3.844-4.151 4.309z"></path>
</symbol>
<symbol id="icon-logo" viewBox="0 0 28 32">
<path fill="#007bff" style="fill: var(--color3, #007bff)" d="M14.206 1.688l13.332 12.41h-5.332v16.922l-8-5.332-8 5.332v-16.92h-5.334l13.334-12.412z"></path>
</symbol>
<symbol id="icon-menu" viewBox="0 0 31 32">
<path fill="#fff" style="fill: var(--color2, #fff)" d="M1.927 4.915h13.913c1.153 0 2.087-0.934 2.087-2.087s-0.934-2.087-2.087-2.087h-13.913c-1.153 0-2.087 0.934-2.087 2.087s0.934 2.087 2.087 2.087z"></path>
<path fill="#fff" style="fill: var(--color2, #fff)" d="M1.927 17.437h26.435c1.153 0 2.087-0.934 2.087-2.087s-0.934-2.087-2.087-2.087h-26.435c-1.153 0-2.087 0.934-2.087 2.087s0.934 2.087 2.087 2.087z"></path>
<path fill="#fff" style="fill: var(--color2, #fff)" d="M14.449 29.959h13.913c1.153 0 2.087-0.934 2.087-2.087s-0.934-2.087-2.087-2.087h-13.913c-1.153 0-2.087 0.934-2.087 2.087s0.934 2.087 2.087 2.087z"></path>
</symbol>
<symbol id="icon-battledotnet" viewBox="0 0 32 32">
<path d="M25.253 11.061c-4.053-1.872-9.875-3.061-15.352-2.619 0.275-1.813 0.952-3.077 2.064-3.344 1.531-0.367 3.2 0.64 4.792 2.472 1.043 0.136 2.28 0.373 3.14 0.572-2.901-5.459-6.793-8.519-9.755-7.389-2.251 0.859-3.404 3.96-3.264 8.125-2.933 0.624-5.22 1.733-6.684 3.327-0.075 0.087-0.241 0.303-0.183 0.407 0.045 0.077 0.195-0.011 0.259-0.053 1.699-1.187 3.872-1.831 6.703-2.235 0.404 4.444 2.284 10.080 5.407 14.603-1.707 0.669-3.141 0.715-3.928-0.116-1.083-1.141-1.045-3.091-0.253-5.387-0.32-0.739-0.686-1.736-1.007-2.753l-0.069-0.253c-3.279 5.245-3.981 10.147-1.524 12.147 1.869 1.52 5.129 0.967 8.669-1.235 2.007 2.229 4.111 3.653 6.223 4.125 0.112 0.020 0.383 0.057 0.443-0.045 0.045-0.080-0.107-0.165-0.175-0.199-1.877-0.876-3.52-2.437-5.285-4.687 3.647-2.572 7.588-7.017 9.943-11.984 1.435 1.147 2.187 2.364 1.864 3.46-0.448 1.508-2.153 2.453-4.537 2.913-0.703 0.902-1.378 1.695-2.086 2.458l0.022-0.024c6.179 0.213 10.773-1.627 11.277-4.753 0.381-2.381-1.727-4.928-5.404-6.893 0.928-2.852 1.109-5.387 0.461-7.451-0.039-0.107-0.141-0.36-0.261-0.36-0.091 0-0.089 0.173-0.084 0.249 0.18 2.063-0.351 4.267-1.416 6.92zM13.876 24.22c-2.613-4.193-4.12-9.132-4.109-14.125 4.936-0.165 9.965 0.997 14.285 3.503-2.324 4.359-5.847 8.133-10.177 10.621h0.001z"></path>
</symbol>
<symbol id="icon-bitcoinsv" viewBox="0 0 32 32">
<path d="M19.531 19.231l0.004-0.005c-0.128 0.363-0.36 0.664-0.658 0.875l-0.006 0.004c-0.359 0.252-0.863 0.451-1.584 0.485l-2.653 0.005v-3.907c0.384 0.011 2.087-0.017 2.825 0.020 0.963 0.047 1.561 0.428 1.88 0.891 0.349 0.468 0.391 1.093 0.192 1.632zM16.692 14.883c0.671-0.032 1.136-0.216 1.468-0.448 0.285-0.195 0.5-0.489 0.613-0.815 0.179-0.5 0.143-1.080-0.181-1.513-0.297-0.425-0.851-0.779-1.741-0.821-0.66-0.035-1.884-0.004-2.219-0.013v3.612c0.033 0.005 2.052-0.001 2.060-0.001zM32 16c0 8.836-7.164 16-16 16s-16-7.164-16-16 7.164-16 16-16 16 7.164 16 16zM23.133 18.856c0.029-1.969-1.653-3.109-2.544-3.429 0.953-0.655 1.608-1.391 1.608-2.78 0-2.207-2.195-3.24-3.529-3.372-0.109-0.012-0.413-0.017-0.413-0.017v-2.109h-2.177l0.005 2.111h-1.456v-2.103h-2.213v2.092c-0.389 0.009-2.732 0.008-2.732 0.008v1.868h0.761c0.801 0.021 1.096 0.483 1.064 0.903v8.055c-0.011 0.274-0.223 0.496-0.492 0.521l-0.002 0c-0.332 0.015-0.828 0-0.828 0l-0.427 2.117h2.661v2.133h2.215v-2.121h1.455v2.125h2.165v-2.117c2.532 0.067 4.857-1.428 4.88-3.884z"></path>
</symbol>
<symbol id="icon-epicgames" viewBox="0 0 32 32">
<path d="M4.716 0c-1.829 0-2.503 0.675-2.503 2.505v22.081c-0 0.008-0 0.017-0 0.027 0 0.194 0.010 0.385 0.029 0.574l-0.002-0.024c0.041 0.4 0.049 0.787 0.421 1.227 0.036 0.044 0.415 0.327 0.415 0.327 0.204 0.1 0.344 0.173 0.573 0.267l11.113 4.655c0.577 0.265 0.819 0.368 1.237 0.36h0.003c0.419 0.008 0.66-0.095 1.237-0.36l11.113-4.656c0.229-0.093 0.369-0.165 0.573-0.267 0 0 0.379-0.281 0.415-0.324 0.373-0.44 0.38-0.828 0.421-1.227 0.017-0.165 0.027-0.357 0.027-0.551 0-0.010-0-0.020-0-0.030v0.002-22.081c0-1.831-0.675-2.507-2.504-2.507zM22.537 4.147h0.907c1.517 0 2.251 0.737 2.251 2.261v2.507h-1.832v-2.4c0-0.492-0.227-0.72-0.697-0.72h-0.313c-0.489 0-0.716 0.227-0.716 0.719v7.747c0 0.492 0.227 0.72 0.716 0.72h0.349c0.471 0 0.697-0.228 0.697-0.72v-2.768h1.831v2.857c0 1.525-0.749 2.28-2.267 2.28h-0.925c-1.517 0-2.267-0.755-2.267-2.28v-7.923c0-1.525 0.749-2.279 2.267-2.279zM6.289 4.253h4.152v1.699h-2.285v3.471h2.197v1.7h-2.197v3.699h2.32v1.7h-4.187zM11.377 4.253h2.931c1.517 0 2.267 0.752 2.267 2.277v3.26c0 1.525-0.749 2.28-2.267 2.28h-1.065v4.451h-1.867zM17.417 4.253h1.867v12.268h-1.867zM13.244 5.9v4.523h0.767c0.472 0 0.697-0.228 0.697-0.72v-3.083c0-0.491-0.227-0.72-0.697-0.72zM8.257 19.429c0.283 0.001 0.554 0.054 0.804 0.149l-0.016-0.005c0.251 0.102 0.467 0.237 0.656 0.401l-0.003-0.002-0.603 0.728c-0.118-0.102-0.254-0.189-0.4-0.256l-0.010-0.004c-0.136-0.058-0.295-0.091-0.461-0.091-0.008 0-0.016 0-0.024 0l0.001-0c-0.002-0-0.005-0-0.007-0-0.133 0-0.259 0.029-0.371 0.082l0.005-0.002c-0.117 0.054-0.216 0.128-0.298 0.217l-0.001 0.001c-0.084 0.091-0.152 0.199-0.199 0.317l-0.002 0.007c-0.047 0.116-0.075 0.251-0.075 0.392 0 0.002 0 0.005 0 0.007v-0 0.011c-0 0.002-0 0.005-0 0.008 0 0.146 0.027 0.285 0.077 0.413l-0.003-0.008c0.049 0.127 0.12 0.236 0.209 0.327l-0-0c0.088 0.089 0.194 0.161 0.311 0.211l0.006 0.002c0.116 0.049 0.251 0.077 0.392 0.077 0.004 0 0.008-0 0.012-0h-0.001c0.013 0.001 0.028 0.001 0.042 0.001 0.204 0 0.394-0.058 0.555-0.158l-0.004 0.003v-0.452h-0.731v-0.753h1.705v1.673c-0.201 0.164-0.431 0.301-0.681 0.403l-0.018 0.006c-0.258 0.104-0.557 0.164-0.87 0.164-0.014 0-0.029-0-0.043-0l0.002 0c-0.007 0-0.016 0-0.025 0-0.28 0-0.547-0.052-0.793-0.148l0.015 0.005c-0.247-0.096-0.459-0.232-0.638-0.401l0.001 0.001c-0.177-0.168-0.32-0.369-0.419-0.595l-0.005-0.012c-0.097-0.222-0.153-0.48-0.153-0.752 0-0.008 0-0.015 0-0.023v0.001-0.011c-0-0.005-0-0.012-0-0.018 0-0.268 0.055-0.523 0.155-0.754l-0.005 0.012c0.103-0.238 0.243-0.442 0.416-0.613l0-0c0.176-0.174 0.386-0.313 0.619-0.407l0.013-0.005c0.23-0.094 0.497-0.148 0.776-0.148 0.008 0 0.015 0 0.023 0h-0.001c0.009-0 0.019-0 0.030-0s0.021 0 0.032 0l-0.002-0zM24.208 19.44c0.002 0 0.004 0 0.007 0 0.289 0 0.567 0.046 0.828 0.131l-0.019-0.005c0.259 0.087 0.484 0.213 0.68 0.372l-0.004-0.003-0.515 0.728c-0.15-0.109-0.322-0.202-0.506-0.269l-0.014-0.005c-0.154-0.057-0.331-0.091-0.516-0.093h-0.001c-0.010-0.001-0.021-0.001-0.032-0.001-0.091 0-0.176 0.026-0.247 0.072l0.002-0.001c-0.056 0.037-0.092 0.099-0.093 0.169v0.011c-0 0.001-0 0.003-0 0.005 0 0.040 0.011 0.077 0.030 0.108l-0.001-0.001c0.026 0.037 0.060 0.067 0.1 0.087l0.002 0.001c0.055 0.030 0.12 0.057 0.188 0.078l0.008 0.002c0.083 0.027 0.187 0.053 0.315 0.081 0.227 0.049 0.419 0.105 0.605 0.173l-0.031-0.010c0.167 0.059 0.312 0.136 0.442 0.23l-0.005-0.003c0.115 0.084 0.209 0.191 0.274 0.315l0.002 0.005c0.060 0.124 0.095 0.269 0.095 0.422 0 0.010-0 0.019-0 0.029l0-0.001v0.011c0 0.006 0 0.014 0 0.022 0 0.177-0.040 0.345-0.111 0.495l0.003-0.007c-0.075 0.151-0.178 0.278-0.303 0.378l-0.002 0.002c-0.133 0.105-0.29 0.188-0.461 0.238l-0.010 0.002c-0.175 0.052-0.377 0.082-0.585 0.082-0.010 0-0.020-0-0.030-0l0.002 0c-0.005 0-0.010 0-0.015 0-0.333 0-0.654-0.057-0.951-0.161l0.020 0.006c-0.306-0.105-0.569-0.263-0.793-0.463l0.002 0.002 0.573-0.685c0.369 0.297 0.771 0.447 1.2 0.447 0.011 0.001 0.023 0.001 0.036 0.001 0.102 0 0.198-0.025 0.282-0.069l-0.003 0.002c0.066-0.036 0.109-0.105 0.109-0.184 0-0.002-0-0.004-0-0.006v0-0.011c0-0.001 0-0.002 0-0.003 0-0.037-0.010-0.071-0.027-0.101l0 0.001c-0.025-0.037-0.058-0.067-0.096-0.087l-0.001-0.001c-0.054-0.031-0.117-0.059-0.184-0.081l-0.007-0.002c-0.079-0.027-0.183-0.055-0.289-0.079l-0.022-0.004c-0.233-0.053-0.417-0.105-0.598-0.164l0.047 0.013c-0.168-0.054-0.314-0.126-0.447-0.217l0.006 0.004c-0.122-0.084-0.222-0.193-0.294-0.319l-0.003-0.005c-0.069-0.13-0.11-0.285-0.11-0.449 0-0.011 0-0.022 0.001-0.032l-0 0.002v-0.011c-0-0.004-0-0.008-0-0.012 0-0.169 0.036-0.329 0.102-0.474l-0.003 0.007c0.068-0.15 0.165-0.276 0.284-0.376l0.002-0.001c0.128-0.107 0.279-0.191 0.444-0.244l0.009-0.003c0.171-0.056 0.367-0.088 0.572-0.088 0.009 0 0.018 0 0.027 0h-0.001c0.005-0 0.011-0 0.017-0s0.012 0 0.018 0h-0.001zM11.731 19.473h0.989l1.577 3.747h-1.1l-0.271-0.665h-1.429l-0.264 0.664h-1.080zM14.66 19.5h1.085l0.884 1.44 0.884-1.44h1.085v3.72h-1.021v-2.136l-0.948 1.455h-0.021l-0.943-1.444v2.124h-1.005zM19.285 19.5h2.98v0.877h-1.964v0.563h1.779v0.813h-1.779v0.589h1.991v0.877h-3.007zM12.219 20.696l-0.42 1.057h0.832zM10.692 27.616h10.685l-5.453 1.797z"></path>
</symbol>
<symbol id="icon-facebookgaming" viewBox="0 0 32 32">
<path d="M0 0v32h20.893v-9.8h-11.093v-12.4h22.2v-9.8zM11.107 20.907h11.093v11.093h9.8v-20.907h-20.893z"></path>
</symbol>
<symbol id="icon-greatlearning" viewBox="0 0 32 32">
<path d="M19.164 0c-8.823 0-16 7.177-16 16s7.177 16 16 16h1.141c1.277-1.567 2.548-3.139 3.823-4.708h-4.964c-6.225 0-11.292-5.067-11.292-11.292 0-6.227 5.067-11.292 11.292-11.292h5.833l3.823-4.708zM24.128 27.292l4.708-5.805v-8.017h-10.003l-3.815 4.711h9.109z"></path>
</symbol>
<symbol id="icon-lightburn" viewBox="0 0 32 32">
<path d="M1.892 31.929c-0.641-0.173-1.275-0.673-1.573-1.244-0.331-0.633-0.304 0.212-0.304-10.005v-9.205l0.285-0.416c0.982-1.391 2.2-2.545 3.605-3.428l0.052-0.031c1.573-0.964 3.291-1.564 5.233-1.829 0.728-0.1 2.493-0.137 3.176-0.068 2.979 0.303 5.889 1.587 7.703 3.399l0.451 0.451-0.385 0.393c-0.212 0.216-0.431 0.445-0.485 0.507l-0.101 0.115 0.699 0.029c1.347 0.056 3.24 0.564 4.547 1.221 0.205 0.104 0.383 0.187 0.395 0.187 0.013 0-0.099-0.229-0.247-0.512-0.82-1.567-1.425-3.693-1.359-4.777l0.024-0.393-0.463 0.484-0.463 0.485-0.32-0.295c-2.401-2.217-5.121-3.464-8.541-3.913-1.805-0.237-4.091-0.193-5.816 0.113-1.669 0.287-3.164 0.795-4.54 1.501l0.088-0.041c-1.189 0.583-2.277 1.293-3.207 2.093l-0.331 0.284v-2.48c0.004-2.443 0.005-2.48 0.105-2.776 0.295-0.868 0.987-1.501 1.86-1.708 0.26-0.061 1.897-0.069 13.991-0.069 11.9 0 13.737 0.009 14.015 0.067 0.903 0.191 1.627 0.871 1.931 1.815 0.073 0.224 0.077 1.168 0.065 14.096-0.012 11.833-0.024 13.893-0.080 14.116-0.197 0.796-0.793 1.448-1.611 1.767l-0.305 0.119-2.956 0.013c-1.627 0.007-2.956 0-2.956-0.013 0-0.016 0.029-0.084 0.064-0.151 0.259-0.507 0.515-1.739 0.561-2.709 0.027-0.544 0.033-0.58 0.111-0.539 0.224 0.12 0.625 1.179 0.64 1.687 0.013 0.497 0.125 0.631 0.265 0.312 0.126-0.337 0.244-0.748 0.331-1.17l0.010-0.057c0.191-1.116 0.221-2.747 0.069-3.769-0.233-1.572-0.629-2.944-1.231-4.265-0.469-1.028-1.121-2.099-1.725-2.829l-0.28-0.337c-0.068-0.083-0.064-0.085 0.111-0.055 0.575 0.099 1.229 0.452 1.615 0.869 0.105 0.115 0.203 0.207 0.216 0.207 0.053 0-0.56-0.845-0.869-1.2-0.959-1.096-2.129-1.871-3.64-2.411-0.723-0.259-1.723-0.497-2.080-0.497-0.119 0-0.152-0.021-0.175-0.115-0.109-0.432 0.336-1.121 1.053-1.631 0.292-0.208 0.307-0.225 0.16-0.195-0.432 0.109-0.805 0.242-1.161 0.405l0.041-0.017c-0.412 0.196-1.060 0.776-1.507 1.343l-0.137 0.176-0.431-0.009c-0.014 0-0.030 0-0.047 0-0.144 0-0.285-0.011-0.422-0.032l0.015 0.002c-0.088-0.088 0.563-1.007 1.061-1.496 0.4-0.392 1.041-0.92 1.255-1.032 0.059-0.031 0.097-0.065 0.085-0.077-0.027-0.027-0.999 0.36-1.539 0.611-0.716 0.333-1.519 0.933-2.284 1.708-0.575 0.583-0.617 0.599-1.216 0.449-0.572-0.141-1.385-0.173-1.887-0.071-1.2 0.243-1.943 1.059-1.912 2.103l0.008 0.273-0.596 1.013c-0.653 1.113-0.983 1.571-1.456 2.029-0.465 0.451-0.68 0.592-0.821 0.539-0.168-0.064-0.48-0.052-0.703 0.027-0.262 0.083-0.473 0.262-0.597 0.494l-0.003 0.006c-0.157 0.32-0.557 0.453-0.701 0.232-0.113-0.171-0.436-0.311-0.635-0.273-0.232 0.043-0.584 0.376-0.751 0.708-0.284 0.568-0.357 1.427-0.168 1.963 0.141 0.372 0.443 0.655 0.819 0.766l0.009 0.002c0.053 0.016 0.224 0.179 0.381 0.361 0.273 0.317 0.389 0.4 0.281 0.199-0.076-0.143-0.060-0.395 0.031-0.473 0.14-0.123 0.264-0.168 0.724-0.267 0.436-0.096 0.451-0.096 0.496-0.013 0.161 0.293 0.844 0.837 1.053 0.837 0.061 0 0.059-0.020-0.023-0.133-0.163-0.228-0.275-0.52-0.275-0.72-0.001-0.272 0.136-0.409 0.725-0.723 0.444-0.235 0.559-0.321 0.951-0.725 0.772-0.796 0.923-0.933 1.305-1.187 0.765-0.507 1.689-0.897 2.364-0.997 0.321-0.047 0.369-0.043 0.637 0.055 0.24 0.088 0.636 0.303 0.636 0.347 0 0.005-0.293 0.18-0.651 0.387-0.359 0.207-0.784 0.463-0.947 0.569-0.893 0.579-1.869 1.541-2.583 2.545-0.56 0.787-0.937 1.184-1.331 1.393-0.316 0.168-0.623 0.224-1.488 0.267-0.425 0.021-0.624 0.048-0.613 0.083 0.037 0.115 0.627 0.397 1.063 0.509 0.677 0.173 1.349 0.199 1.912 0.068 0.8-0.184 1.253-0.483 1.795-1.183 0.715-0.924 1.053-1.273 1.535-1.592 1.223-0.809 1.951-0.979 3.065-0.715 0.96 0.227 1.24 0.2 1.776-0.184 0.221-0.157 0.411-0.368 0.829-0.923 0.624-0.827 1.001-1.249 0.952-1.067-0.043 0.153-0.395 0.853-0.783 1.555l-0.319 0.575 0.173 0.145c0.237 0.2 0.447 0.639 0.48 1.012 0.039 0.403-0.065 0.787-0.353 1.305-0.364 0.659-0.776 1.171-1.612 2.007-1.319 1.34-2.859 2.457-4.562 3.294l-0.098 0.044-0.776 0.38-4.108-0.003c-3.435-0.003-4.149-0.013-4.355-0.069zM9.897 19.305c0.168-0.569 0.695-1.255 1.128-1.467 0.256-0.122 0.557-0.194 0.874-0.194 0.287 0 0.56 0.059 0.809 0.164l-0.014-0.005 0.2 0.088-0.107 0.189c-0.377 0.673-1.453 1.227-2.541 1.307l-0.383 0.027z"></path>
</symbol>
<symbol id="icon-phoenixframework" viewBox="0 0 32 32">
<path d="M12.016 20.321l-0.251-0.048c-1.787-0.331-2.915-1.413-3.451-3.112-0.333-1.059 0.272-1.84 1.384-1.888 0.909-0.043 1.533 0.48 2.083 1.088 0.709 0.784 1.36 1.621 2.056 2.419 1.005 1.147 2.187 1.883 3.805 1.653 1.479-0.204 2.784-0.83 3.821-1.75l-0.007 0.006c0.165-0.144 0.347-0.267 0.523-0.403l-0.112-0.131c-0.702 0.222-1.51 0.35-2.348 0.35-0.168 0-0.336-0.005-0.501-0.015l0.023 0.001c-1.456-0.072-2.843-0.376-4.085-1.176-1.131-0.731-1.968-1.707-2.365-3.013-0.32-1.053 0.336-1.792 1.429-1.64 0.417 0.065 0.808 0.249 1.123 0.531 0.267 0.224 0.52 0.461 0.792 0.68 1.277 1.027 3.059 1.083 4.677-0.029-2.661-0.013-4.472-1.477-6.064-3.333-0.621-0.725-1.229-1.467-1.867-2.181-1.227-1.384-2.592-2.603-4.461-3.019-2.387-0.531-4.691-0.181-6.901 0.829-0.503 0.225-0.937 0.498-1.326 0.823l0.009-0.007h0.469c1.115-0.029 1.952 0.467 2.555 1.379 0.437 0.664 0.643 1.413 0.8 2.187 0.235 1.147 0.115 2.312 0.251 3.464 0.347 2.96 1.859 5.024 4.675 6.080 1.032 0.389 2.091 0.52 3.267 0.253v0.003zM4.899 6.817c-0.445 0.112-0.8-0.067-1.165-0.437 0.627-0.157 1.181-0.219 1.776-0.24-0.028 0.34-0.279 0.614-0.606 0.677l-0.005 0.001zM19.483 24.097c-0.040-0.283-0.283-0.408-0.475-0.56-0.845-0.656-1.837-0.891-2.885-0.909-0.035 0.001-0.077 0.001-0.119 0.001-0.615 0-1.206-0.102-1.757-0.29l0.038 0.011c-0.272-0.101-0.573-0.232-0.568-0.581 0.008-0.355 0.317-0.453 0.597-0.539 0.232-0.069 0.469-0.112 0.731-0.173-0.667-0.427-1.317-0.485-2.181-0.136-1.365 0.547-2.709 0.48-4.069-0.008-0.765-0.277-1.448-0.712-2.157-1.099l-0.035 0.027c0.587 0.963 1.384 1.739 2.28 2.4 1.728 1.28 3.616 2.040 5.827 1.701 0.557-0.093 1.295-0.183 2.041-0.246l0.111-0.008c0.901-0.072 1.76 0.181 2.621 0.411v-0.003zM15.317 10.271c-0.048-0.035-0.093-0.12-0.192-0.032 0.771 1.046 1.802 1.86 2.999 2.351l0.047 0.017c1.984 0.805 4 0.944 6.059 0.232 1.6-0.552 2.747-0.013 3.344 1.541 0.088-1.803-0.973-3.117-2.661-3.373-0.949-0.147-1.827 0.171-2.717 0.427-2.475 0.72-4.779 0.365-6.88-1.163h0.003zM27.659 17.3l0.968 0.085c-0.728-0.64-1.616-0.693-2.517-0.64-1.368 0.077-2.355 0.867-3.253 1.808-0.792 0.832-1.507 1.765-2.688 2.099l0.027 0.053c0.16 0.003 0.32 0.011 0.48 0.003 1.717-0.077 3.333-0.44 4.619-1.685 0.408-0.392 0.768-0.827 1.16-1.235 0.301-0.344 0.749-0.525 1.205-0.488zM23.669 15.172c-1.28 0.112-2.392 0.64-3.44 1.341-0.803 0.539-1.664 0.792-2.629 0.624-0.171-0.029-0.344-0.053-0.512-0.077l-0.008 0.072c0.061 0.032 0.123 0.067 0.187 0.093 0.16 0.064 0.32 0.141 0.485 0.181 1.861 0.44 3.643 0.213 5.248-0.824 1.013-0.653 2.061-0.776 3.197-0.608 0.115 0.019 0.229 0.037 0.344 0.048 0.107 0.011 0.219 0.117 0.363 0-0.75-0.55-1.691-0.881-2.709-0.881-0.185 0-0.368 0.011-0.548 0.032l0.022-0.002zM19.091 10.825c0.070 0.005 0.152 0.008 0.234 0.008 0.668 0 1.293-0.183 1.828-0.502l-0.016 0.009c-0.205 0.019-0.293 0.019-0.376 0.035-0.199 0.046-0.428 0.073-0.663 0.073-0.744 0-1.425-0.265-1.956-0.706l0.005 0.004-0.861-0.667c-1.141-0.869-2.448-1.163-3.88-1.136 0.024 0.069 0.027 0.117 0.051 0.141 1.557 1.573 3.36 2.661 5.635 2.739v0.003zM30.36 18.905c-0.965-0.96-2.259-1.080-3.453-0.248 0.792 0.037 1.387 0.288 1.867 0.789 0.171 0.179 0.349 0.347 0.539 0.504 0.731 0.587 1.965 0.613 2.688 0.069-0.848-0.331-0.848-0.331-1.64-1.117v0.003zM20.763 26.22c-0.845-1.573-2.267-1.931-3.915-1.824 0.485 0.133 0.944 0.347 1.36 0.632 0.381 0.267 0.701 0.597 1.019 0.936 0.629 0.672 1.611 1.083 2.261 0.944-0.299-0.187-0.728-0.685-0.728-0.685h-0.016l0.011 0.008 0.005 0.024c0.005-0.027 0.008-0.021 0.011-0.013h0.027l-0.037-0.016v0.013l0.013 0.005s0.152 0.277-0.011-0.024z"></path>
</symbol>
<symbol id="icon-primereact" viewBox="0 0 32 32">
<path d="M16.013 0c-1.616 0-3.063 0.827-3.871 2.213l-2.027 3.477h-4.379c-0.011-0-0.023-0-0.035-0-1.613 0-3.023 0.872-3.784 2.17l-0.011 0.021c-0.377 0.626-0.599 1.382-0.599 2.19s0.223 1.564 0.61 2.21l-0.011-0.020 2.189 3.759-2.195 3.767c-0.374 0.622-0.595 1.372-0.595 2.174s0.221 1.552 0.606 2.193l-0.011-0.019c0.767 1.309 2.167 2.175 3.769 2.175 0.011 0 0.023-0 0.034-0h3.898l1.153 1.141 1.364 2.336c0.78 1.333 2.205 2.213 3.835 2.213 0.012 0 0.023-0 0.035-0h-0.002c1.615 0 3.061-0.827 3.869-2.213l1.088-1.867 1.627-1.611h3.693c0.009 0 0.020 0 0.032 0 1.613 0 3.023-0.872 3.784-2.17l0.011-0.021c0.8-1.371 0.8-3.008 0-4.38l-2.189-3.76 2.195-3.765c0.374-0.622 0.595-1.372 0.595-2.174s-0.221-1.552-0.606-2.193l0.011 0.019c-0.767-1.309-2.167-2.175-3.769-2.175-0.011 0-0.023 0-0.034 0h-4.388l-2.027-3.477c-0.78-1.333-2.205-2.213-3.835-2.213-0.011 0-0.022 0-0.033 0h0.002zM16.013 0.959c1.264 0 2.397 0.648 3.031 1.733l1.747 2.999h-9.557l1.747-2.997c0.611-1.044 1.728-1.735 3.005-1.735 0.010 0 0.020 0 0.029 0h-0.002zM16.453 6.645v10.32h1.283l7.872-2.899 0.019-0.076 1.16 1.989-1.773 3.043 0.228-4.231-2.013 0.724-2.013 1.992-1.649-0.36 1.283 1.809v5.616l1.936-1.728-0.944 1.621v0.001l-0.992 0.829v0.872l-0.549 0.944v-7.793l-1.464-2.173-0.916 0.543h-3.661l-0.916-0.543-1.464 2.173v8.135l-0.549-0.941v-1.216l-1.381-1.156-0.972-1.667 2.353 2.099v-5.616l1.281-1.811-1.648 0.361-2.013-1.992-2.015-0.724 0.251 4.607-1.969-3.379 1.256-2.156 0.163-0.277 0.117 0.48 7.872 2.899h1.099v-10.319zM18.469 6.645h0.549l1.28 2.893 2.58-0.267 0.316 0.541-3.269 0.256zM13.156 6.647h0.549l-1.456 3.423-3.408-0.273 0.096-0.165 0.001 0.001 0.217-0.373 2.72 0.28zM5.736 6.648h3.823l-1.784 3.061-2.123-0.169 0.653 2.691-1.649 2.832-1.911-3.28c-0.294-0.489-0.468-1.080-0.468-1.711s0.174-1.222 0.477-1.727l-0.008 0.015c0.603-1.031 1.705-1.712 2.965-1.712 0.009 0 0.018 0 0.027 0h-0.001zM22.465 6.648h3.831c1.237 0 2.345 0.635 2.964 1.696 0.292 0.485 0.464 1.070 0.464 1.695s-0.172 1.211-0.472 1.71l0.008-0.015-1.916 3.288-1.389-2.385 0.751-3.097-2.444 0.191zM27.344 16.939l1.911 3.28c0.294 0.489 0.468 1.080 0.468 1.711s-0.174 1.221-0.477 1.726l0.008-0.015c-0.603 1.030-1.704 1.711-2.964 1.711-0.009 0-0.019-0-0.028-0h-3.035v-1.351zM4.656 16.979l4.293 7.367v1.005h-3.247c-0.008 0-0.018 0-0.027 0-1.248 0-2.339-0.674-2.928-1.677l-0.009-0.016c-0.292-0.485-0.464-1.070-0.464-1.696s0.173-1.211 0.473-1.711l-0.008 0.015z"></path>
</symbol>
<symbol id="icon-republicofgamers" viewBox="0 0 32 32">
<path d="M28.521 7.444c-1.796 0.015-4.578 0.261-7.917 1.302-2.137 0.665-5.221 3.656-10.966 9.211-0.76 0.427-3.56-1.188-5.174-1.948 0 0 2.657 4.227 3.607 5.461 1.424 1.947 4.036 3.086 4.036 3.086-0.237-0.237-2.040-2.137-2.563-3.229-0.332-0.522 0.046-1.283 2.609-3.182 2.326-1.709 10.589-8.687 18.565-10.586 0 0-0.801-0.127-2.198-0.115v0zM32 10.361c-2.754 0.285-5.413 1.092-7.93 2.279-5.033 2.374-13.531 8.451-13.531 8.451 0.38 0.237 0.761 0.474 1.141 0.664 4.083 1.804 10.113 2.895 11.253 2.516 3.181-1.044 6.741-7.737 7.833-10.823 0 0-3.324 1.329-6.695 2.896-2.801 1.329-5.885 2.849-5.885 2.849l7.833-2.375s-2.090 4.938-4.844 5.508c-2.754 0.57-7.596-1.378-7.596-1.378 0.38-0.332 5.507-4.084 17.471-8.974 0.522-0.38 0.856-0.995 0.951-1.612v0zM0 15.059c0.475 1.282 1.093 2.47 1.805 3.609 0.855 1.092 4.366 1.994 4.841 2.089-2.184-1.519-6.646-5.698-6.646-5.698z"></path>
</symbol>
<symbol id="icon-xiaomi" viewBox="0 0 32 32">
<path d="M16 0c-5.312 0-9.659 0.34-12.676 3.355-3.017 3.013-3.324 7.356-3.324 12.661 0 5.307 0.307 9.647 3.325 12.663 3.017 3.015 7.364 3.321 12.675 3.321s9.657-0.307 12.675-3.321c3.019-3.016 3.325-7.359 3.325-12.663 0-5.312-0.311-9.657-3.336-12.672-3.019-3.008-7.36-3.344-12.664-3.344zM6.541 9.873h7.499c1.96 0 4.009 0.091 5.019 1.103 0.995 0.995 1.103 2.977 1.107 4.901v6.053c-0.002 0.109-0.091 0.196-0.2 0.196-0.001 0-0.002 0-0.003-0h-2.596c-0.001 0-0.002 0-0.003 0-0.11 0-0.198-0.088-0.2-0.197v-6.156c-0.003-1.075-0.064-2.179-0.619-2.735-0.477-0.48-1.368-0.588-2.293-0.611h-4.708c-0 0-0.001 0-0.001 0-0.109 0-0.198 0.087-0.2 0.196v9.307c-0.002 0.109-0.090 0.197-0.2 0.197-0.001 0-0.002 0-0.003-0h-2.598c0 0 0 0-0 0-0.11 0-0.198-0.088-0.2-0.197v-11.859c0.001-0.11 0.090-0.199 0.2-0.199 0 0 0 0 0 0v0zM22.716 9.873h2.599c0.11 0 0.2 0.090 0.2 0.2v0 11.856c-0.002 0.109-0.090 0.197-0.2 0.197 0 0 0 0-0 0h-2.599c-0 0-0.001 0-0.001 0-0.11 0-0.198-0.088-0.2-0.197v-11.857c0.001-0.11 0.090-0.199 0.2-0.199 0 0 0.001 0 0.001 0h-0zM11.893 14.597h2.728c0.111 0 0.2 0.088 0.2 0.196v7.136c-0.002 0.109-0.090 0.197-0.2 0.197 0 0 0 0-0 0h-2.728c-0.001 0-0.002 0-0.003 0-0.11 0-0.198-0.088-0.2-0.197v-7.136c0.002-0.109 0.091-0.196 0.2-0.196 0.001 0 0.002 0 0.003 0h-0z"></path>
</symbol>
<symbol id="icon-star" viewBox="0 0 32 32">
<path fill="#ffc52f" style="fill: var(--color1, #ffc52f)" d="M7.036 20.308c0.025 0.025 0.050 0.076 0.025 0.101l-1.285 7.608c-0.176 1.033-0.025 1.889 0.403 2.419 0.302 0.353 0.731 0.529 1.26 0.529 0.504 0 1.108-0.176 1.738-0.504l6.827-3.603c0.025-0.025 0.076-0.025 0.126 0l6.827 3.577c0.63 0.328 1.209 0.504 1.713 0.504v0c0.529 0 0.957-0.176 1.26-0.529 0.428-0.504 0.579-1.36 0.378-2.419l-1.335-7.608c0-0.050 0-0.076 0.025-0.101l5.517-5.391c0.907-0.882 1.285-1.789 1.033-2.519-0.252-0.756-1.083-1.26-2.318-1.436l-7.634-1.083c-0.050 0-0.076-0.025-0.101-0.076l-3.426-6.903c-0.554-1.134-1.31-1.764-2.091-1.764s-1.512 0.63-2.091 1.764l-3.401 6.928c-0.025 0.025-0.050 0.050-0.101 0.076l-7.634 1.134c-1.26 0.176-2.066 0.705-2.318 1.436s0.126 1.612 1.008 2.494h0.025c0.025 0 0.025 0.025 0.050 0.050l5.517 5.316z"></path>
<path fill="#000" style="fill: var(--color2, #000)" d="M7.439 31.343c-0.453 0-0.882-0.126-1.209-0.378-0.756-0.554-1.033-1.612-0.806-3.023l1.26-7.482-5.442-5.265-0.176-0.176c-0.025-0.025-0.025-0.025-0.050-0.050-0.857-0.932-1.184-1.864-0.932-2.696 0.277-0.882 1.209-1.486 2.62-1.713l7.508-1.108 3.326-6.802c0.63-1.285 1.486-1.99 2.419-1.99v0c0.932 0 1.789 0.705 2.419 1.965l3.376 6.777 7.508 1.058c1.411 0.202 2.343 0.806 2.645 1.688s-0.101 1.915-1.134 2.922l-5.417 5.316 1.31 7.457c0.252 1.411-0.025 2.469-0.781 3.023s-1.864 0.504-3.124-0.176l-6.727-3.502-6.701 3.552c-0.68 0.428-1.31 0.605-1.889 0.605zM1.569 14.841l5.543 5.366c0.050 0.050 0.076 0.151 0.076 0.227l-1.285 7.608c-0.202 1.209 0 2.091 0.605 2.519s1.512 0.353 2.595-0.227l6.827-3.603c0.076-0.050 0.151-0.050 0.227 0l6.827 3.577c1.083 0.554 1.99 0.63 2.595 0.202 0.579-0.428 0.806-1.335 0.579-2.545l-1.335-7.608c-0.025-0.076 0-0.176 0.076-0.227l5.517-5.391c0.882-0.857 1.234-1.713 1.008-2.393-0.227-0.705-1.008-1.184-2.217-1.335l-7.634-1.083c-0.076 0-0.151-0.076-0.202-0.126l-3.426-6.903c-0.554-1.083-1.234-1.688-1.965-1.688v0c-0.731 0-1.436 0.605-1.965 1.713l-3.401 6.928c-0.025 0.076-0.101 0.126-0.202 0.126l-1.889 0.277-5.719 0.857c-1.209 0.176-1.99 0.655-2.217 1.36-0.227 0.68 0.126 1.537 0.983 2.368z"></path>
<path fill="#000" style="fill: var(--color2, #000)" d="M1.418 15.295c-0.050 0-0.126-0.025-0.176-0.076v0 0 0 0 0 0 0 0 0 0 0 0 0 0 0 0 0 0l-0.176-0.176c-0.101-0.101-0.101-0.252 0-0.353s0.252-0.101 0.353 0l0.176 0.176c0.101 0.101 0.101 0.252 0 0.353-0.050 0.050-0.126 0.076-0.176 0.076z"></path>
</symbol>
</defs>
</svg>
