<svg aria-hidden="true" style="position: absolute; width: 0; height: 0; overflow: hidden;" version="1.1" xmlns="http://www.w3.org/2000/svg" xmlns:xlink="http://www.w3.org/1999/xlink">
<defs>
<symbol id="icon-logo" viewBox="0 0 28 32">
<path fill="#007bff" style="fill: var(--color1, #007bff)" d="M14.206 1.688l13.332 12.41h-5.332v16.922l-8-5.332-8 5.332v-16.92h-5.334l13.334-12.412z"></path>
</symbol>
<symbol id="icon-menu" viewBox="0 0 31 32">
<path fill="#fff" style="fill: var(--color2, #ffffff)" d="M1.927 4.915h13.913c1.153 0 2.087-0.934 2.087-2.087s-0.934-2.087-2.087-2.087h-13.913c-1.153 0-2.087 0.934-2.087 2.087s0.934 2.087 2.087 2.087z"></path>
<path fill="#fff" style="fill: var(--color2, #fff)" d="M1.927 17.437h26.435c1.153 0 2.087-0.934 2.087-2.087s-0.934-2.087-2.087-2.087h-26.435c-1.153 0-2.087 0.934-2.087 2.087s0.934 2.087 2.087 2.087z"></path>
<path fill="#fff" style="fill: var(--color2, #fff)" d="M14.449 29.959h13.913c1.153 0 2.087-0.934 2.087-2.087s-0.934-2.087-2.087-2.087h-13.913c-1.153 0-2.087 0.934-2.087 2.087s0.934 2.087 2.087 2.087z"></path>
</symbol>
</defs>
</svg>
